<svg xmlns="http://www.w3.org/2000/svg" viewBox="0 0 760 420" role="img" aria-labelledby="title desc">
  <title id="title">Ove geometric logo</title>
  <desc id="desc">Sphere, pyramid, and cube in white with dark shadows.</desc>
  <defs>
    <linearGradient id="whiteShade" x1="0" y1="0" x2="1" y2="1">
      <stop offset="0%" stop-color="#ffffff"/>
      <stop offset="100%" stop-color="#e3e3e3"/>
    </linearGradient>
    <linearGradient id="shadowFill" x1="0" y1="0" x2="1" y2="1">
      <stop offset="0%" stop-color="#444246"/>
      <stop offset="100%" stop-color="#181619"/>
    </linearGradient>
  </defs>

  <ellipse cx="124" cy="330" rx="98" ry="40" fill="url(#shadowFill)" opacity="0.9"/>
  <circle cx="145" cy="210" r="128" fill="url(#whiteShade)" stroke="#1d1b1e" stroke-width="2"/>
  <path d="M57 146c34-46 82-72 128-72 51 0 93 18 122 53-26 23-54 35-96 35-54 0-112-7-154-16z" fill="#ffffff" opacity="0.78"/>

  <path d="M220 336l112-208 176 146z" fill="url(#shadowFill)" opacity="0.88"/>
  <path d="M195 218l168-148 180 126-198 24z" fill="#ffffff" stroke="#1d1b1e" stroke-width="2"/>
  <path d="M195 218l150 156 198-178z" fill="url(#whiteShade)" stroke="#1d1b1e" stroke-width="2"/>

  <path d="M448 300l170-112 116 62-171 116z" fill="url(#shadowFill)" opacity="0.9"/>
  <path d="M456 102l144-70 154 82-145 72z" fill="#ffffff" stroke="#1d1b1e" stroke-width="2"/>
  <path d="M456 102l-16 174 143 90 26-180z" fill="url(#whiteShade)" stroke="#1d1b1e" stroke-width="2"/>
  <path d="M609 186l145-72-23 175-148 77z" fill="url(#whiteShade)" stroke="#1d1b1e" stroke-width="2"/>
</svg>
